M48
;GenerationSoftware,Autodesk,EAGLE,9.5.1*%
;CreationDate,2019-12-27T07:31:26Z*%
FMAT,2
ICI,OFF
METRIC,TZ,000.000
T4C0.254
T3C0.350
T2C1.016
T1C2.000
%
G90
M71
T1
X73500Y38500
X73500Y1500
X1500Y38500
X1500Y17000
T2
X32450Y2404
X71100Y38450
X68560Y38704
X66020Y38450
X63480Y38704
X60940Y38450
X58400Y38704
X43950Y38627
X46490Y38373
X49030Y38627
X29900Y38627
X32440Y38373
X34980Y38627
X8950Y38500
X20950Y38450
X45150Y2150
X42610Y2404
X40070Y2150
X37530Y2404
X34990Y2150
T3
X14000Y24000
X15000Y24900
X21000Y19000
X8650Y19900
X11970Y20030
X16000Y21150
X16000Y23840
X20525Y25604
X4750Y39300
X25000Y39000
X38300Y39000
X52350Y38450
X52650Y35892
X4000Y1000
X14550Y3050
X15000Y5000
X27376Y3676
X28500Y800
X21000Y6000
X18756Y6000
X41300Y20950
X45650Y20000
X55375Y1125
X66300Y25300
X69300Y25300
X73300Y25300
X71350Y14700
X72300Y14700
X73300Y14700
X65300Y14700
X60350Y18000
X60400Y22000
X51000Y20000
X51250Y4700
X59150Y27400
X56000Y27400
X53050Y27400
X63250Y35700
X63300Y31450
X64700Y31500
X64700Y35750
X51250Y10700
X51250Y31700
X46250Y28700
X45250Y24700
X41450Y11800
X24700Y7550
X34250Y32700
X29250Y24450
X25200Y28600
X22350Y5750
X9250Y1700
X2250Y20700
X2450Y37200
X18950Y39050
X29250Y28600
X47200Y6450
X28150Y7500
X35100Y12900
X38250Y22500
X36900Y24450
X42350Y30700
X24100Y31000
X25000Y33600
X26055Y37055
X38250Y6250
X35850Y6350
X36900Y4850
X39300Y4850
X41600Y4800
X44350Y4850
X29000Y17150
X33950Y10850
X28050Y11000
X26850Y11000
X26800Y12600
X36750Y16250
X15350Y37700
X13600Y33650
X14900Y34900
X21250Y2850
X21950Y1300
X45100Y22900
X21600Y9000
X37446Y12570
X42350Y18100
X39200Y18450
X15350Y6950
X5750Y14100
X17055Y3167
X22900Y31700
X25215Y10150
X17550Y3682
X21600Y31150
X24500Y10150
X26750Y33250
X11400Y13000
X26950Y15800
X26050Y33250
X18600Y11400
X25950Y10150
X30000Y7971
X26000Y7971
X13650Y35000
X17236Y33590
X15800Y27250
X11300Y32750
X11200Y35600
X6000Y36500
X6700Y7000
X19700Y550
X6600Y7850
X19100Y950
X7000Y10000
X19721Y1310
X6300Y12150
X18375Y2125
X10050Y20000
X8850Y8800
X17995Y3167
X21055Y2000
X20805Y531
X24623Y19450
X23304Y26704
X16650Y2600
X22050Y2600
X24200Y25100
X21775Y27525
X17454Y12043
X35517Y10850
X36180Y7850
X16852Y12963
X34800Y10850
X35000Y7500
X17536Y11314
X36084Y10350
X37550Y7950
X13252Y13517
X41021Y17579
X41000Y14716
X13103Y14247
X41600Y15263
X43750Y21850
X11900Y13500
X47000Y16000
X47000Y22000
X16626Y11924
X29500Y11350
X14186Y13500
X27950Y12350
X13582Y11350
X27950Y13150
X22475Y7275
X49000Y27000
X48800Y11548
X22450Y8000
X49406Y26400
X49404Y13050
X11000Y26000
X11000Y27000
X10900Y31550
X53000Y35000
X24950Y35450
X35050Y35250
X48200Y14600
X48250Y4850
X8646Y23800
X18100Y23850
X15600Y19504
X13996Y19224
X12000Y21200
X12050Y22250
X12100Y23650
X14450Y27350
X22165Y23950
X22450Y24769
X37981Y24869
X39250Y7950
X39900Y14600
X16650Y27300
X16669Y20181
X13150Y19250
X8400Y23150
X10800Y23700
X10750Y22250
X8400Y22050
X20850Y22550
X13300Y27550
X14900Y29950
X25212Y20726
X23794Y10106
X19250Y21500
X19250Y20050
X17742Y17850
X12380Y14033
X35767Y21425
X35067Y15300
X12134Y6628
X50600Y1500
X28200Y5000
X27900Y17200
X12572Y7152
X34600Y16250
X12054Y7675
X17700Y25100
X27350Y39150
X12508Y8183
X33900Y16050
X41300Y38550
X43511Y18189
X38250Y7971
X38000Y10350
X39250Y12750
X37500Y14700
X20400Y16900
X12550Y5950
X12564Y4550
X19065Y3550
X20275Y10025
X16550Y11145
X16045Y3000
X11375Y12275
X12200Y16850
X10800Y15950
X41600Y10150
X70000Y2000
X30975Y31225
X39800Y24350
X42000Y37000
X29850Y36600
X41458Y19730
X40507Y19000
X9000Y35000
X9000Y29000
X9500Y25950
X13950Y21000
X14000Y23000
X33179Y16050
T4
X14400Y29350
X10050Y30200
X12929Y30550
M30