G04 EAGLE Gerber RS-274X export*
G75*
%MOMM*%
%FSLAX34Y34*%
%LPD*%
%IN*%
%IPPOS*%
%AMOC8*
5,1,8,0,0,1.08239X$1,22.5*%
G01*
%ADD10C,0.254000*%


D10*
X0Y0D02*
X750000Y0D01*
X750000Y400000D01*
X0Y400000D01*
X0Y0D01*
X9000Y283500D02*
X9010Y283282D01*
X9038Y283066D01*
X9085Y282853D01*
X9151Y282645D01*
X9234Y282443D01*
X9335Y282250D01*
X9452Y282066D01*
X9585Y281893D01*
X9732Y281732D01*
X9893Y281585D01*
X10066Y281452D01*
X10250Y281335D01*
X10443Y281234D01*
X10645Y281151D01*
X10853Y281085D01*
X11066Y281038D01*
X11282Y281010D01*
X11500Y281000D01*
X18500Y281000D01*
X18718Y281010D01*
X18934Y281038D01*
X19147Y281085D01*
X19355Y281151D01*
X19557Y281234D01*
X19750Y281335D01*
X19934Y281452D01*
X20107Y281585D01*
X20268Y281732D01*
X20415Y281893D01*
X20548Y282066D01*
X20665Y282250D01*
X20766Y282443D01*
X20849Y282645D01*
X20915Y282853D01*
X20962Y283066D01*
X20991Y283282D01*
X21000Y283500D01*
X20991Y283718D01*
X20962Y283934D01*
X20915Y284147D01*
X20849Y284355D01*
X20766Y284557D01*
X20665Y284750D01*
X20548Y284934D01*
X20415Y285107D01*
X20268Y285268D01*
X20107Y285415D01*
X19934Y285548D01*
X19750Y285665D01*
X19557Y285766D01*
X19355Y285849D01*
X19147Y285915D01*
X18934Y285962D01*
X18718Y285991D01*
X18500Y286000D01*
X11500Y286000D01*
X11282Y285991D01*
X11066Y285962D01*
X10853Y285915D01*
X10645Y285849D01*
X10443Y285766D01*
X10250Y285665D01*
X10066Y285548D01*
X9893Y285415D01*
X9732Y285268D01*
X9585Y285107D01*
X9452Y284934D01*
X9335Y284750D01*
X9234Y284557D01*
X9151Y284355D01*
X9085Y284147D01*
X9038Y283934D01*
X9010Y283718D01*
X9000Y283500D01*
X9000Y349500D02*
X9010Y349282D01*
X9038Y349066D01*
X9085Y348853D01*
X9151Y348645D01*
X9234Y348443D01*
X9335Y348250D01*
X9452Y348066D01*
X9585Y347893D01*
X9732Y347732D01*
X9893Y347585D01*
X10066Y347452D01*
X10250Y347335D01*
X10443Y347234D01*
X10645Y347151D01*
X10853Y347085D01*
X11066Y347038D01*
X11282Y347010D01*
X11500Y347000D01*
X18500Y347000D01*
X18718Y347010D01*
X18934Y347038D01*
X19147Y347085D01*
X19355Y347151D01*
X19557Y347234D01*
X19750Y347335D01*
X19934Y347452D01*
X20107Y347585D01*
X20268Y347732D01*
X20415Y347893D01*
X20548Y348066D01*
X20665Y348250D01*
X20766Y348443D01*
X20849Y348645D01*
X20915Y348853D01*
X20962Y349066D01*
X20991Y349282D01*
X21000Y349500D01*
X20991Y349718D01*
X20962Y349934D01*
X20915Y350147D01*
X20849Y350355D01*
X20766Y350557D01*
X20665Y350750D01*
X20548Y350934D01*
X20415Y351107D01*
X20268Y351268D01*
X20107Y351415D01*
X19934Y351548D01*
X19750Y351665D01*
X19557Y351766D01*
X19355Y351849D01*
X19147Y351915D01*
X18934Y351962D01*
X18718Y351991D01*
X18500Y352000D01*
X11500Y352000D01*
X11282Y351991D01*
X11066Y351962D01*
X10853Y351915D01*
X10645Y351849D01*
X10443Y351766D01*
X10250Y351665D01*
X10066Y351548D01*
X9893Y351415D01*
X9732Y351268D01*
X9585Y351107D01*
X9452Y350934D01*
X9335Y350750D01*
X9234Y350557D01*
X9151Y350355D01*
X9085Y350147D01*
X9038Y349934D01*
X9010Y349718D01*
X9000Y349500D01*
X745000Y384563D02*
X744924Y383694D01*
X744772Y382834D01*
X744546Y381990D01*
X744248Y381170D01*
X743879Y380378D01*
X743442Y379622D01*
X742941Y378907D01*
X742380Y378238D01*
X741762Y377620D01*
X741093Y377059D01*
X740378Y376558D01*
X739622Y376121D01*
X738830Y375752D01*
X738010Y375454D01*
X737166Y375228D01*
X736307Y375076D01*
X735437Y375000D01*
X734563Y375000D01*
X733694Y375076D01*
X732834Y375228D01*
X731990Y375454D01*
X731170Y375752D01*
X730378Y376121D01*
X729622Y376558D01*
X728907Y377059D01*
X728238Y377620D01*
X727620Y378238D01*
X727059Y378907D01*
X726558Y379622D01*
X726121Y380378D01*
X725752Y381170D01*
X725454Y381990D01*
X725228Y382834D01*
X725076Y383694D01*
X725000Y384563D01*
X725000Y385437D01*
X725076Y386307D01*
X725228Y387166D01*
X725454Y388010D01*
X725752Y388830D01*
X726121Y389622D01*
X726558Y390378D01*
X727059Y391093D01*
X727620Y391762D01*
X728238Y392380D01*
X728907Y392941D01*
X729622Y393442D01*
X730378Y393879D01*
X731170Y394248D01*
X731990Y394546D01*
X732834Y394772D01*
X733694Y394924D01*
X734563Y395000D01*
X735437Y395000D01*
X736307Y394924D01*
X737166Y394772D01*
X738010Y394546D01*
X738830Y394248D01*
X739622Y393879D01*
X740378Y393442D01*
X741093Y392941D01*
X741762Y392380D01*
X742380Y391762D01*
X742941Y391093D01*
X743442Y390378D01*
X743879Y389622D01*
X744248Y388830D01*
X744546Y388010D01*
X744772Y387166D01*
X744924Y386307D01*
X745000Y385437D01*
X745000Y384563D01*
X745000Y14563D02*
X744924Y13694D01*
X744772Y12834D01*
X744546Y11990D01*
X744248Y11170D01*
X743879Y10378D01*
X743442Y9622D01*
X742941Y8907D01*
X742380Y8238D01*
X741762Y7620D01*
X741093Y7059D01*
X740378Y6558D01*
X739622Y6121D01*
X738830Y5752D01*
X738010Y5454D01*
X737166Y5228D01*
X736307Y5076D01*
X735437Y5000D01*
X734563Y5000D01*
X733694Y5076D01*
X732834Y5228D01*
X731990Y5454D01*
X731170Y5752D01*
X730378Y6121D01*
X729622Y6558D01*
X728907Y7059D01*
X728238Y7620D01*
X727620Y8238D01*
X727059Y8907D01*
X726558Y9622D01*
X726121Y10378D01*
X725752Y11170D01*
X725454Y11990D01*
X725228Y12834D01*
X725076Y13694D01*
X725000Y14563D01*
X725000Y15437D01*
X725076Y16307D01*
X725228Y17166D01*
X725454Y18010D01*
X725752Y18830D01*
X726121Y19622D01*
X726558Y20378D01*
X727059Y21093D01*
X727620Y21762D01*
X728238Y22380D01*
X728907Y22941D01*
X729622Y23442D01*
X730378Y23879D01*
X731170Y24248D01*
X731990Y24546D01*
X732834Y24772D01*
X733694Y24924D01*
X734563Y25000D01*
X735437Y25000D01*
X736307Y24924D01*
X737166Y24772D01*
X738010Y24546D01*
X738830Y24248D01*
X739622Y23879D01*
X740378Y23442D01*
X741093Y22941D01*
X741762Y22380D01*
X742380Y21762D01*
X742941Y21093D01*
X743442Y20378D01*
X743879Y19622D01*
X744248Y18830D01*
X744546Y18010D01*
X744772Y17166D01*
X744924Y16307D01*
X745000Y15437D01*
X745000Y14563D01*
X25000Y384563D02*
X24924Y383694D01*
X24772Y382834D01*
X24546Y381990D01*
X24248Y381170D01*
X23879Y380378D01*
X23442Y379622D01*
X22941Y378907D01*
X22380Y378238D01*
X21762Y377620D01*
X21093Y377059D01*
X20378Y376558D01*
X19622Y376121D01*
X18830Y375752D01*
X18010Y375454D01*
X17166Y375228D01*
X16307Y375076D01*
X15437Y375000D01*
X14563Y375000D01*
X13694Y375076D01*
X12834Y375228D01*
X11990Y375454D01*
X11170Y375752D01*
X10378Y376121D01*
X9622Y376558D01*
X8907Y377059D01*
X8238Y377620D01*
X7620Y378238D01*
X7059Y378907D01*
X6558Y379622D01*
X6121Y380378D01*
X5752Y381170D01*
X5454Y381990D01*
X5228Y382834D01*
X5076Y383694D01*
X5000Y384563D01*
X5000Y385437D01*
X5076Y386307D01*
X5228Y387166D01*
X5454Y388010D01*
X5752Y388830D01*
X6121Y389622D01*
X6558Y390378D01*
X7059Y391093D01*
X7620Y391762D01*
X8238Y392380D01*
X8907Y392941D01*
X9622Y393442D01*
X10378Y393879D01*
X11170Y394248D01*
X11990Y394546D01*
X12834Y394772D01*
X13694Y394924D01*
X14563Y395000D01*
X15437Y395000D01*
X16307Y394924D01*
X17166Y394772D01*
X18010Y394546D01*
X18830Y394248D01*
X19622Y393879D01*
X20378Y393442D01*
X21093Y392941D01*
X21762Y392380D01*
X22380Y391762D01*
X22941Y391093D01*
X23442Y390378D01*
X23879Y389622D01*
X24248Y388830D01*
X24546Y388010D01*
X24772Y387166D01*
X24924Y386307D01*
X25000Y385437D01*
X25000Y384563D01*
X25000Y169563D02*
X24924Y168694D01*
X24772Y167834D01*
X24546Y166990D01*
X24248Y166170D01*
X23879Y165378D01*
X23442Y164622D01*
X22941Y163907D01*
X22380Y163238D01*
X21762Y162620D01*
X21093Y162059D01*
X20378Y161558D01*
X19622Y161121D01*
X18830Y160752D01*
X18010Y160454D01*
X17166Y160228D01*
X16307Y160076D01*
X15437Y160000D01*
X14563Y160000D01*
X13694Y160076D01*
X12834Y160228D01*
X11990Y160454D01*
X11170Y160752D01*
X10378Y161121D01*
X9622Y161558D01*
X8907Y162059D01*
X8238Y162620D01*
X7620Y163238D01*
X7059Y163907D01*
X6558Y164622D01*
X6121Y165378D01*
X5752Y166170D01*
X5454Y166990D01*
X5228Y167834D01*
X5076Y168694D01*
X5000Y169563D01*
X5000Y170437D01*
X5076Y171307D01*
X5228Y172166D01*
X5454Y173010D01*
X5752Y173830D01*
X6121Y174622D01*
X6558Y175378D01*
X7059Y176093D01*
X7620Y176762D01*
X8238Y177380D01*
X8907Y177941D01*
X9622Y178442D01*
X10378Y178879D01*
X11170Y179248D01*
X11990Y179546D01*
X12834Y179772D01*
X13694Y179924D01*
X14563Y180000D01*
X15437Y180000D01*
X16307Y179924D01*
X17166Y179772D01*
X18010Y179546D01*
X18830Y179248D01*
X19622Y178879D01*
X20378Y178442D01*
X21093Y177941D01*
X21762Y177380D01*
X22380Y176762D01*
X22941Y176093D01*
X23442Y175378D01*
X23879Y174622D01*
X24248Y173830D01*
X24546Y173010D01*
X24772Y172166D01*
X24924Y171307D01*
X25000Y170437D01*
X25000Y169563D01*
M02*
