G04 EAGLE Gerber RS-274X export*
G75*
%MOMM*%
%FSLAX34Y34*%
%LPD*%
%INSilkscreen Bottom*%
%IPPOS*%
%AMOC8*
5,1,8,0,0,1.08239X$1,22.5*%
G01*
%ADD10C,0.200000*%
%ADD11C,0.127000*%
%ADD12C,0.203200*%
%ADD13C,0.152400*%
%ADD14C,0.050800*%
%ADD15C,0.254000*%

G36*
X15565Y230877D02*
X15565Y230877D01*
X15631Y230879D01*
X15674Y230897D01*
X15721Y230905D01*
X15778Y230939D01*
X15838Y230964D01*
X15873Y230995D01*
X15914Y231020D01*
X15956Y231071D01*
X16004Y231115D01*
X16026Y231157D01*
X16055Y231194D01*
X16076Y231256D01*
X16107Y231315D01*
X16115Y231369D01*
X16127Y231406D01*
X16126Y231446D01*
X16134Y231500D01*
X16134Y233500D01*
X16123Y233565D01*
X16121Y233631D01*
X16103Y233674D01*
X16095Y233721D01*
X16061Y233778D01*
X16036Y233838D01*
X16005Y233873D01*
X15980Y233914D01*
X15929Y233956D01*
X15885Y234004D01*
X15843Y234026D01*
X15806Y234055D01*
X15744Y234076D01*
X15685Y234107D01*
X15631Y234115D01*
X15594Y234127D01*
X15554Y234126D01*
X15500Y234134D01*
X500Y234134D01*
X435Y234123D01*
X369Y234121D01*
X326Y234103D01*
X279Y234095D01*
X222Y234061D01*
X162Y234036D01*
X127Y234005D01*
X86Y233980D01*
X45Y233929D01*
X-4Y233885D01*
X-26Y233843D01*
X-55Y233806D01*
X-76Y233744D01*
X-107Y233685D01*
X-115Y233631D01*
X-127Y233594D01*
X-126Y233554D01*
X-134Y233500D01*
X-134Y231500D01*
X-123Y231435D01*
X-121Y231369D01*
X-103Y231326D01*
X-95Y231279D01*
X-61Y231222D01*
X-36Y231162D01*
X-5Y231127D01*
X20Y231086D01*
X71Y231045D01*
X115Y230996D01*
X157Y230974D01*
X194Y230945D01*
X256Y230924D01*
X315Y230893D01*
X369Y230885D01*
X406Y230873D01*
X446Y230874D01*
X500Y230866D01*
X15500Y230866D01*
X15565Y230877D01*
G37*
G36*
X695609Y25735D02*
X695609Y25735D01*
X695652Y25749D01*
X695769Y25778D01*
X696363Y26024D01*
X696400Y26048D01*
X696506Y26106D01*
X697016Y26497D01*
X697046Y26531D01*
X697133Y26614D01*
X697524Y27124D01*
X697544Y27164D01*
X697590Y27240D01*
X697592Y27242D01*
X697592Y27244D01*
X697606Y27267D01*
X697852Y27861D01*
X697862Y27905D01*
X697895Y28021D01*
X697979Y28657D01*
X697977Y28702D01*
X697979Y28823D01*
X697892Y29480D01*
X697879Y29523D01*
X697849Y29640D01*
X697596Y30253D01*
X697572Y30290D01*
X697513Y30396D01*
X697109Y30922D01*
X697076Y30952D01*
X696992Y31039D01*
X696466Y31443D01*
X696426Y31464D01*
X696323Y31526D01*
X695710Y31779D01*
X695666Y31789D01*
X695550Y31822D01*
X694893Y31909D01*
X694848Y31907D01*
X694727Y31909D01*
X694091Y31825D01*
X694048Y31811D01*
X693931Y31782D01*
X693337Y31536D01*
X693300Y31512D01*
X693194Y31454D01*
X692684Y31063D01*
X692654Y31029D01*
X692567Y30946D01*
X692176Y30436D01*
X692157Y30399D01*
X692151Y30392D01*
X692149Y30385D01*
X692094Y30293D01*
X691848Y29699D01*
X691838Y29655D01*
X691811Y29560D01*
X691806Y29545D01*
X691806Y29543D01*
X691805Y29539D01*
X691721Y28903D01*
X691723Y28858D01*
X691721Y28737D01*
X691808Y28080D01*
X691813Y28063D01*
X691813Y28052D01*
X691825Y28025D01*
X691851Y27920D01*
X692104Y27307D01*
X692129Y27270D01*
X692137Y27253D01*
X692155Y27210D01*
X692171Y27192D01*
X692187Y27164D01*
X692591Y26638D01*
X692624Y26608D01*
X692708Y26521D01*
X693234Y26117D01*
X693274Y26096D01*
X693377Y26034D01*
X693990Y25781D01*
X694034Y25771D01*
X694150Y25738D01*
X694807Y25651D01*
X694852Y25653D01*
X694973Y25651D01*
X695609Y25735D01*
G37*
G36*
X8018Y246374D02*
X8018Y246374D01*
X8084Y246371D01*
X8129Y246386D01*
X8176Y246391D01*
X8235Y246420D01*
X8298Y246440D01*
X8342Y246473D01*
X8377Y246490D01*
X8404Y246519D01*
X8448Y246552D01*
X11448Y249552D01*
X11499Y249625D01*
X11555Y249694D01*
X11563Y249716D01*
X11577Y249736D01*
X11599Y249822D01*
X11627Y249906D01*
X11627Y249930D01*
X11633Y249953D01*
X11623Y250042D01*
X11621Y250131D01*
X11612Y250153D01*
X11609Y250176D01*
X11570Y250256D01*
X11536Y250338D01*
X11520Y250356D01*
X11510Y250377D01*
X11445Y250438D01*
X11385Y250504D01*
X11364Y250515D01*
X11347Y250531D01*
X11265Y250566D01*
X11185Y250607D01*
X11159Y250610D01*
X11140Y250619D01*
X11090Y250621D01*
X11000Y250634D01*
X5000Y250634D01*
X4912Y250618D01*
X4824Y250609D01*
X4803Y250599D01*
X4779Y250595D01*
X4702Y250549D01*
X4623Y250510D01*
X4606Y250493D01*
X4586Y250480D01*
X4530Y250411D01*
X4469Y250347D01*
X4460Y250325D01*
X4445Y250306D01*
X4416Y250222D01*
X4381Y250140D01*
X4380Y250116D01*
X4373Y250094D01*
X4375Y250005D01*
X4371Y249916D01*
X4379Y249893D01*
X4379Y249869D01*
X4413Y249787D01*
X4440Y249702D01*
X4456Y249681D01*
X4464Y249662D01*
X4498Y249624D01*
X4552Y249552D01*
X7552Y246552D01*
X7606Y246514D01*
X7653Y246469D01*
X7697Y246450D01*
X7736Y246423D01*
X7799Y246407D01*
X7860Y246381D01*
X7907Y246379D01*
X7953Y246368D01*
X8018Y246374D01*
G37*
D10*
X61650Y143500D02*
X61650Y69500D01*
X61650Y6000D02*
X9350Y6000D01*
X9350Y47260D02*
X9350Y123660D01*
X35500Y143500D02*
X61650Y143500D01*
D11*
X102600Y39080D02*
X102600Y28920D01*
X127500Y38500D02*
X127500Y42900D01*
X127500Y38500D02*
X131900Y38500D01*
X127500Y105100D02*
X127500Y109500D01*
X131900Y109500D01*
X198500Y109500D02*
X198500Y105100D01*
X198500Y109500D02*
X194100Y109500D01*
X198500Y42900D02*
X198500Y38500D01*
X194100Y38500D01*
D10*
X120000Y46000D02*
X120002Y46063D01*
X120008Y46125D01*
X120018Y46187D01*
X120031Y46249D01*
X120049Y46309D01*
X120070Y46368D01*
X120095Y46426D01*
X120124Y46482D01*
X120156Y46536D01*
X120191Y46588D01*
X120229Y46637D01*
X120271Y46685D01*
X120315Y46729D01*
X120363Y46771D01*
X120412Y46809D01*
X120464Y46844D01*
X120518Y46876D01*
X120574Y46905D01*
X120632Y46930D01*
X120691Y46951D01*
X120751Y46969D01*
X120813Y46982D01*
X120875Y46992D01*
X120937Y46998D01*
X121000Y47000D01*
X121063Y46998D01*
X121125Y46992D01*
X121187Y46982D01*
X121249Y46969D01*
X121309Y46951D01*
X121368Y46930D01*
X121426Y46905D01*
X121482Y46876D01*
X121536Y46844D01*
X121588Y46809D01*
X121637Y46771D01*
X121685Y46729D01*
X121729Y46685D01*
X121771Y46637D01*
X121809Y46588D01*
X121844Y46536D01*
X121876Y46482D01*
X121905Y46426D01*
X121930Y46368D01*
X121951Y46309D01*
X121969Y46249D01*
X121982Y46187D01*
X121992Y46125D01*
X121998Y46063D01*
X122000Y46000D01*
X121998Y45937D01*
X121992Y45875D01*
X121982Y45813D01*
X121969Y45751D01*
X121951Y45691D01*
X121930Y45632D01*
X121905Y45574D01*
X121876Y45518D01*
X121844Y45464D01*
X121809Y45412D01*
X121771Y45363D01*
X121729Y45315D01*
X121685Y45271D01*
X121637Y45229D01*
X121588Y45191D01*
X121536Y45156D01*
X121482Y45124D01*
X121426Y45095D01*
X121368Y45070D01*
X121309Y45049D01*
X121249Y45031D01*
X121187Y45018D01*
X121125Y45008D01*
X121063Y45002D01*
X121000Y45000D01*
X120937Y45002D01*
X120875Y45008D01*
X120813Y45018D01*
X120751Y45031D01*
X120691Y45049D01*
X120632Y45070D01*
X120574Y45095D01*
X120518Y45124D01*
X120464Y45156D01*
X120412Y45191D01*
X120363Y45229D01*
X120315Y45271D01*
X120271Y45315D01*
X120229Y45363D01*
X120191Y45412D01*
X120156Y45464D01*
X120124Y45518D01*
X120095Y45574D01*
X120070Y45632D01*
X120049Y45691D01*
X120031Y45751D01*
X120018Y45813D01*
X120008Y45875D01*
X120002Y45937D01*
X120000Y46000D01*
D11*
X708350Y26780D02*
X740350Y26780D01*
X740350Y54780D02*
X708350Y54780D01*
X708350Y42280D02*
X708350Y39780D01*
X740350Y39280D02*
X740350Y42280D01*
X740350Y54280D02*
X740350Y54780D01*
X740350Y27280D02*
X740350Y26780D01*
X708350Y54280D02*
X708350Y54780D01*
X708350Y27280D02*
X708350Y26780D01*
X718760Y40780D02*
X718762Y40929D01*
X718768Y41079D01*
X718778Y41228D01*
X718792Y41377D01*
X718810Y41525D01*
X718832Y41673D01*
X718858Y41820D01*
X718887Y41967D01*
X718921Y42112D01*
X718959Y42257D01*
X719000Y42400D01*
X719045Y42543D01*
X719094Y42684D01*
X719147Y42824D01*
X719204Y42962D01*
X719264Y43099D01*
X719328Y43234D01*
X719395Y43368D01*
X719466Y43499D01*
X719540Y43629D01*
X719618Y43756D01*
X719699Y43882D01*
X719784Y44005D01*
X719872Y44126D01*
X719963Y44244D01*
X720057Y44360D01*
X720154Y44474D01*
X720255Y44585D01*
X720358Y44693D01*
X720464Y44798D01*
X720573Y44901D01*
X720684Y45000D01*
X720798Y45097D01*
X720915Y45190D01*
X721034Y45280D01*
X721156Y45367D01*
X721279Y45451D01*
X721405Y45532D01*
X721533Y45609D01*
X721664Y45682D01*
X721796Y45752D01*
X721929Y45819D01*
X722065Y45882D01*
X722202Y45941D01*
X722341Y45996D01*
X722481Y46048D01*
X722623Y46096D01*
X722765Y46141D01*
X722909Y46181D01*
X723054Y46218D01*
X723200Y46250D01*
X723347Y46279D01*
X723494Y46304D01*
X723642Y46325D01*
X723790Y46342D01*
X723939Y46355D01*
X724089Y46364D01*
X724238Y46369D01*
X724387Y46370D01*
X724537Y46367D01*
X724686Y46360D01*
X724835Y46349D01*
X724984Y46334D01*
X725132Y46315D01*
X725280Y46292D01*
X725427Y46265D01*
X725573Y46235D01*
X725718Y46200D01*
X725863Y46161D01*
X726006Y46119D01*
X726148Y46073D01*
X726289Y46023D01*
X726429Y45969D01*
X726567Y45912D01*
X726703Y45851D01*
X726838Y45786D01*
X726971Y45718D01*
X727102Y45646D01*
X727231Y45570D01*
X727358Y45492D01*
X727483Y45410D01*
X727605Y45324D01*
X727726Y45236D01*
X727844Y45144D01*
X727959Y45049D01*
X728072Y44951D01*
X728182Y44850D01*
X728289Y44746D01*
X728394Y44639D01*
X728496Y44530D01*
X728595Y44418D01*
X728690Y44303D01*
X728783Y44185D01*
X728872Y44066D01*
X728959Y43944D01*
X729042Y43819D01*
X729121Y43693D01*
X729197Y43564D01*
X729270Y43434D01*
X729339Y43301D01*
X729405Y43167D01*
X729467Y43031D01*
X729525Y42893D01*
X729580Y42754D01*
X729631Y42614D01*
X729678Y42472D01*
X729721Y42329D01*
X729761Y42185D01*
X729796Y42039D01*
X729828Y41893D01*
X729856Y41747D01*
X729880Y41599D01*
X729900Y41451D01*
X729916Y41302D01*
X729928Y41153D01*
X729936Y41004D01*
X729940Y40855D01*
X729940Y40705D01*
X729936Y40556D01*
X729928Y40407D01*
X729916Y40258D01*
X729900Y40109D01*
X729880Y39961D01*
X729856Y39813D01*
X729828Y39667D01*
X729796Y39521D01*
X729761Y39375D01*
X729721Y39231D01*
X729678Y39088D01*
X729631Y38946D01*
X729580Y38806D01*
X729525Y38667D01*
X729467Y38529D01*
X729405Y38393D01*
X729339Y38259D01*
X729270Y38126D01*
X729197Y37996D01*
X729121Y37867D01*
X729042Y37741D01*
X728959Y37616D01*
X728872Y37494D01*
X728783Y37375D01*
X728690Y37257D01*
X728595Y37142D01*
X728496Y37030D01*
X728394Y36921D01*
X728289Y36814D01*
X728182Y36710D01*
X728072Y36609D01*
X727959Y36511D01*
X727844Y36416D01*
X727726Y36324D01*
X727605Y36236D01*
X727483Y36150D01*
X727358Y36068D01*
X727231Y35990D01*
X727102Y35914D01*
X726971Y35842D01*
X726838Y35774D01*
X726703Y35709D01*
X726567Y35648D01*
X726429Y35591D01*
X726289Y35537D01*
X726148Y35487D01*
X726006Y35441D01*
X725863Y35399D01*
X725718Y35360D01*
X725573Y35325D01*
X725427Y35295D01*
X725280Y35268D01*
X725132Y35245D01*
X724984Y35226D01*
X724835Y35211D01*
X724686Y35200D01*
X724537Y35193D01*
X724387Y35190D01*
X724238Y35191D01*
X724089Y35196D01*
X723939Y35205D01*
X723790Y35218D01*
X723642Y35235D01*
X723494Y35256D01*
X723347Y35281D01*
X723200Y35310D01*
X723054Y35342D01*
X722909Y35379D01*
X722765Y35419D01*
X722623Y35464D01*
X722481Y35512D01*
X722341Y35564D01*
X722202Y35619D01*
X722065Y35678D01*
X721929Y35741D01*
X721796Y35808D01*
X721664Y35878D01*
X721533Y35951D01*
X721405Y36028D01*
X721279Y36109D01*
X721156Y36193D01*
X721034Y36280D01*
X720915Y36370D01*
X720798Y36463D01*
X720684Y36560D01*
X720573Y36659D01*
X720464Y36762D01*
X720358Y36867D01*
X720255Y36975D01*
X720154Y37086D01*
X720057Y37200D01*
X719963Y37316D01*
X719872Y37434D01*
X719784Y37555D01*
X719699Y37678D01*
X719618Y37804D01*
X719540Y37931D01*
X719466Y38061D01*
X719395Y38192D01*
X719328Y38326D01*
X719264Y38461D01*
X719204Y38598D01*
X719147Y38736D01*
X719094Y38876D01*
X719045Y39017D01*
X719000Y39160D01*
X718959Y39303D01*
X718921Y39448D01*
X718887Y39593D01*
X718858Y39740D01*
X718832Y39887D01*
X718810Y40035D01*
X718792Y40183D01*
X718778Y40332D01*
X718768Y40481D01*
X718762Y40631D01*
X718760Y40780D01*
D10*
X178950Y252000D02*
X178952Y252063D01*
X178958Y252125D01*
X178968Y252187D01*
X178981Y252249D01*
X178999Y252309D01*
X179020Y252368D01*
X179045Y252426D01*
X179074Y252482D01*
X179106Y252536D01*
X179141Y252588D01*
X179179Y252637D01*
X179221Y252685D01*
X179265Y252729D01*
X179313Y252771D01*
X179362Y252809D01*
X179414Y252844D01*
X179468Y252876D01*
X179524Y252905D01*
X179582Y252930D01*
X179641Y252951D01*
X179701Y252969D01*
X179763Y252982D01*
X179825Y252992D01*
X179887Y252998D01*
X179950Y253000D01*
X180013Y252998D01*
X180075Y252992D01*
X180137Y252982D01*
X180199Y252969D01*
X180259Y252951D01*
X180318Y252930D01*
X180376Y252905D01*
X180432Y252876D01*
X180486Y252844D01*
X180538Y252809D01*
X180587Y252771D01*
X180635Y252729D01*
X180679Y252685D01*
X180721Y252637D01*
X180759Y252588D01*
X180794Y252536D01*
X180826Y252482D01*
X180855Y252426D01*
X180880Y252368D01*
X180901Y252309D01*
X180919Y252249D01*
X180932Y252187D01*
X180942Y252125D01*
X180948Y252063D01*
X180950Y252000D01*
X180948Y251937D01*
X180942Y251875D01*
X180932Y251813D01*
X180919Y251751D01*
X180901Y251691D01*
X180880Y251632D01*
X180855Y251574D01*
X180826Y251518D01*
X180794Y251464D01*
X180759Y251412D01*
X180721Y251363D01*
X180679Y251315D01*
X180635Y251271D01*
X180587Y251229D01*
X180538Y251191D01*
X180486Y251156D01*
X180432Y251124D01*
X180376Y251095D01*
X180318Y251070D01*
X180259Y251049D01*
X180199Y251031D01*
X180137Y251018D01*
X180075Y251008D01*
X180013Y251002D01*
X179950Y251000D01*
X179887Y251002D01*
X179825Y251008D01*
X179763Y251018D01*
X179701Y251031D01*
X179641Y251049D01*
X179582Y251070D01*
X179524Y251095D01*
X179468Y251124D01*
X179414Y251156D01*
X179362Y251191D01*
X179313Y251229D01*
X179265Y251271D01*
X179221Y251315D01*
X179179Y251363D01*
X179141Y251412D01*
X179106Y251464D01*
X179074Y251518D01*
X179045Y251574D01*
X179020Y251632D01*
X178999Y251691D01*
X178981Y251751D01*
X178968Y251813D01*
X178958Y251875D01*
X178952Y251937D01*
X178950Y252000D01*
D11*
X133700Y199500D02*
X129500Y199500D01*
X129500Y260500D02*
X133700Y260500D01*
X166300Y199500D02*
X170500Y199500D01*
X170500Y260500D02*
X166300Y260500D01*
X129500Y203700D02*
X129500Y199500D01*
X129500Y256300D02*
X129500Y260500D01*
X170500Y203700D02*
X170500Y199500D01*
X170500Y256300D02*
X170500Y260500D01*
D10*
X96550Y282000D02*
X96552Y282063D01*
X96558Y282125D01*
X96568Y282187D01*
X96581Y282249D01*
X96599Y282309D01*
X96620Y282368D01*
X96645Y282426D01*
X96674Y282482D01*
X96706Y282536D01*
X96741Y282588D01*
X96779Y282637D01*
X96821Y282685D01*
X96865Y282729D01*
X96913Y282771D01*
X96962Y282809D01*
X97014Y282844D01*
X97068Y282876D01*
X97124Y282905D01*
X97182Y282930D01*
X97241Y282951D01*
X97301Y282969D01*
X97363Y282982D01*
X97425Y282992D01*
X97487Y282998D01*
X97550Y283000D01*
X97613Y282998D01*
X97675Y282992D01*
X97737Y282982D01*
X97799Y282969D01*
X97859Y282951D01*
X97918Y282930D01*
X97976Y282905D01*
X98032Y282876D01*
X98086Y282844D01*
X98138Y282809D01*
X98187Y282771D01*
X98235Y282729D01*
X98279Y282685D01*
X98321Y282637D01*
X98359Y282588D01*
X98394Y282536D01*
X98426Y282482D01*
X98455Y282426D01*
X98480Y282368D01*
X98501Y282309D01*
X98519Y282249D01*
X98532Y282187D01*
X98542Y282125D01*
X98548Y282063D01*
X98550Y282000D01*
X98548Y281937D01*
X98542Y281875D01*
X98532Y281813D01*
X98519Y281751D01*
X98501Y281691D01*
X98480Y281632D01*
X98455Y281574D01*
X98426Y281518D01*
X98394Y281464D01*
X98359Y281412D01*
X98321Y281363D01*
X98279Y281315D01*
X98235Y281271D01*
X98187Y281229D01*
X98138Y281191D01*
X98086Y281156D01*
X98032Y281124D01*
X97976Y281095D01*
X97918Y281070D01*
X97859Y281049D01*
X97799Y281031D01*
X97737Y281018D01*
X97675Y281008D01*
X97613Y281002D01*
X97550Y281000D01*
X97487Y281002D01*
X97425Y281008D01*
X97363Y281018D01*
X97301Y281031D01*
X97241Y281049D01*
X97182Y281070D01*
X97124Y281095D01*
X97068Y281124D01*
X97014Y281156D01*
X96962Y281191D01*
X96913Y281229D01*
X96865Y281271D01*
X96821Y281315D01*
X96779Y281363D01*
X96741Y281412D01*
X96706Y281464D01*
X96674Y281518D01*
X96645Y281574D01*
X96620Y281632D01*
X96599Y281691D01*
X96581Y281751D01*
X96568Y281813D01*
X96558Y281875D01*
X96552Y281937D01*
X96550Y282000D01*
D11*
X106500Y277700D02*
X137500Y277700D01*
X137500Y310300D02*
X106500Y310300D01*
D12*
X53000Y276000D02*
X18000Y276000D01*
X18000Y284000D01*
X43000Y284000D01*
X43000Y296000D01*
X43000Y336000D02*
X43000Y348000D01*
X18000Y348000D01*
X18000Y356000D01*
X53000Y356000D01*
X93000Y336000D02*
X93000Y296000D01*
D11*
X177500Y266000D02*
X191500Y266000D01*
X191500Y238000D01*
X177500Y238000D01*
X177500Y266000D01*
X193000Y208500D02*
X207000Y208500D01*
X193000Y208500D02*
X193000Y236500D01*
X207000Y236500D01*
X207000Y208500D01*
X191500Y208500D02*
X177500Y208500D01*
X177500Y236500D01*
X191500Y236500D01*
X191500Y208500D01*
X15500Y233500D02*
X500Y233500D01*
X500Y263500D01*
X15500Y263500D01*
X15500Y233500D01*
X18000Y263500D02*
X32000Y263500D01*
X32000Y235500D01*
X18000Y235500D01*
X18000Y263500D01*
X88500Y230500D02*
X102500Y230500D01*
X88500Y230500D02*
X88500Y258500D01*
X102500Y258500D01*
X102500Y230500D01*
X104500Y258500D02*
X118500Y258500D01*
X118500Y230500D01*
X104500Y230500D01*
X104500Y258500D01*
X88500Y260500D02*
X88500Y274500D01*
X116500Y274500D01*
X116500Y260500D01*
X88500Y260500D01*
X104500Y229000D02*
X118500Y229000D01*
X118500Y201000D01*
X104500Y201000D01*
X104500Y229000D01*
X102500Y201000D02*
X88500Y201000D01*
X88500Y229000D01*
X102500Y229000D01*
X102500Y201000D01*
X94000Y199000D02*
X94000Y185000D01*
X94000Y199000D02*
X122000Y199000D01*
X122000Y185000D01*
X94000Y185000D01*
X193000Y266000D02*
X207000Y266000D01*
X207000Y238000D01*
X193000Y238000D01*
X193000Y266000D01*
X193000Y207000D02*
X207000Y207000D01*
X207000Y179000D01*
X193000Y179000D01*
X193000Y207000D01*
X178000Y177500D02*
X178000Y163500D01*
X178000Y177500D02*
X206000Y177500D01*
X206000Y163500D01*
X178000Y163500D01*
X177500Y207000D02*
X191500Y207000D01*
X191500Y179000D01*
X177500Y179000D01*
X177500Y207000D01*
X176000Y177500D02*
X176000Y163500D01*
X148000Y163500D01*
X148000Y177500D01*
X176000Y177500D01*
X176000Y179000D02*
X176000Y193000D01*
X176000Y179000D02*
X148000Y179000D01*
X148000Y193000D01*
X176000Y193000D01*
D13*
X210340Y195910D02*
X210340Y239090D01*
X228120Y241630D02*
X228220Y241628D01*
X228319Y241622D01*
X228419Y241612D01*
X228517Y241599D01*
X228616Y241581D01*
X228713Y241560D01*
X228809Y241535D01*
X228905Y241506D01*
X228999Y241473D01*
X229092Y241437D01*
X229183Y241397D01*
X229273Y241353D01*
X229361Y241306D01*
X229447Y241256D01*
X229531Y241202D01*
X229613Y241145D01*
X229692Y241085D01*
X229770Y241021D01*
X229844Y240955D01*
X229916Y240886D01*
X229985Y240814D01*
X230051Y240740D01*
X230115Y240662D01*
X230175Y240583D01*
X230232Y240501D01*
X230286Y240417D01*
X230336Y240331D01*
X230383Y240243D01*
X230427Y240153D01*
X230467Y240062D01*
X230503Y239969D01*
X230536Y239875D01*
X230565Y239779D01*
X230590Y239683D01*
X230611Y239586D01*
X230629Y239487D01*
X230642Y239389D01*
X230652Y239289D01*
X230658Y239190D01*
X230660Y239090D01*
X230660Y195910D02*
X230658Y195810D01*
X230652Y195711D01*
X230642Y195611D01*
X230629Y195513D01*
X230611Y195414D01*
X230590Y195317D01*
X230565Y195221D01*
X230536Y195125D01*
X230503Y195031D01*
X230467Y194938D01*
X230427Y194847D01*
X230383Y194757D01*
X230336Y194669D01*
X230286Y194583D01*
X230232Y194499D01*
X230175Y194417D01*
X230115Y194338D01*
X230051Y194260D01*
X229985Y194186D01*
X229916Y194114D01*
X229844Y194045D01*
X229770Y193979D01*
X229692Y193915D01*
X229613Y193855D01*
X229531Y193798D01*
X229447Y193744D01*
X229361Y193694D01*
X229273Y193647D01*
X229183Y193603D01*
X229092Y193563D01*
X228999Y193527D01*
X228905Y193494D01*
X228809Y193465D01*
X228713Y193440D01*
X228616Y193419D01*
X228517Y193401D01*
X228419Y193388D01*
X228319Y193378D01*
X228220Y193372D01*
X228120Y193370D01*
X212880Y193370D02*
X212780Y193372D01*
X212681Y193378D01*
X212581Y193388D01*
X212483Y193401D01*
X212384Y193419D01*
X212287Y193440D01*
X212191Y193465D01*
X212095Y193494D01*
X212001Y193527D01*
X211908Y193563D01*
X211817Y193603D01*
X211727Y193647D01*
X211639Y193694D01*
X211553Y193744D01*
X211469Y193798D01*
X211387Y193855D01*
X211308Y193915D01*
X211230Y193979D01*
X211156Y194045D01*
X211084Y194114D01*
X211015Y194186D01*
X210949Y194260D01*
X210885Y194338D01*
X210825Y194417D01*
X210768Y194499D01*
X210714Y194583D01*
X210664Y194669D01*
X210617Y194757D01*
X210573Y194847D01*
X210533Y194938D01*
X210497Y195031D01*
X210464Y195125D01*
X210435Y195221D01*
X210410Y195317D01*
X210389Y195414D01*
X210371Y195513D01*
X210358Y195611D01*
X210348Y195711D01*
X210342Y195810D01*
X210340Y195910D01*
X210340Y239090D02*
X210342Y239190D01*
X210348Y239289D01*
X210358Y239389D01*
X210371Y239487D01*
X210389Y239586D01*
X210410Y239683D01*
X210435Y239779D01*
X210464Y239875D01*
X210497Y239969D01*
X210533Y240062D01*
X210573Y240153D01*
X210617Y240243D01*
X210664Y240331D01*
X210714Y240417D01*
X210768Y240501D01*
X210825Y240583D01*
X210885Y240662D01*
X210949Y240740D01*
X211015Y240814D01*
X211084Y240886D01*
X211156Y240955D01*
X211230Y241021D01*
X211308Y241085D01*
X211387Y241145D01*
X211469Y241202D01*
X211553Y241256D01*
X211639Y241306D01*
X211727Y241353D01*
X211817Y241397D01*
X211908Y241437D01*
X212001Y241473D01*
X212095Y241506D01*
X212191Y241535D01*
X212287Y241560D01*
X212384Y241581D01*
X212483Y241599D01*
X212581Y241612D01*
X212681Y241622D01*
X212780Y241628D01*
X212880Y241630D01*
X228120Y241630D01*
X228120Y193370D02*
X212880Y193370D01*
X230660Y195910D02*
X230660Y239090D01*
D14*
X233454Y195487D02*
X239042Y193624D01*
X239042Y197349D02*
X233454Y195487D01*
X233454Y199640D02*
X239042Y199640D01*
X239042Y201192D01*
X239040Y201269D01*
X239034Y201347D01*
X239025Y201423D01*
X239011Y201500D01*
X238994Y201575D01*
X238973Y201649D01*
X238948Y201723D01*
X238920Y201795D01*
X238888Y201865D01*
X238853Y201934D01*
X238814Y202001D01*
X238772Y202066D01*
X238727Y202129D01*
X238679Y202190D01*
X238628Y202248D01*
X238574Y202303D01*
X238517Y202356D01*
X238458Y202405D01*
X238396Y202452D01*
X238332Y202496D01*
X238266Y202536D01*
X238198Y202573D01*
X238128Y202607D01*
X238057Y202637D01*
X237984Y202663D01*
X237910Y202686D01*
X237835Y202705D01*
X237760Y202720D01*
X237683Y202732D01*
X237606Y202740D01*
X237529Y202744D01*
X237451Y202744D01*
X237374Y202740D01*
X237297Y202732D01*
X237220Y202720D01*
X237145Y202705D01*
X237070Y202686D01*
X236996Y202663D01*
X236923Y202637D01*
X236852Y202607D01*
X236782Y202573D01*
X236714Y202536D01*
X236648Y202496D01*
X236584Y202452D01*
X236522Y202405D01*
X236463Y202356D01*
X236406Y202303D01*
X236352Y202248D01*
X236301Y202190D01*
X236253Y202129D01*
X236208Y202066D01*
X236166Y202001D01*
X236127Y201934D01*
X236092Y201865D01*
X236060Y201795D01*
X236032Y201723D01*
X236007Y201649D01*
X235986Y201575D01*
X235969Y201500D01*
X235955Y201423D01*
X235946Y201347D01*
X235940Y201269D01*
X235938Y201192D01*
X235938Y199640D01*
X235938Y201502D02*
X233454Y202744D01*
X233454Y205284D02*
X233454Y207768D01*
X233454Y205284D02*
X239042Y205284D01*
X239042Y207768D01*
X236558Y207147D02*
X236558Y205284D01*
X236558Y212201D02*
X236558Y213132D01*
X233454Y213132D01*
X233454Y211270D01*
X233456Y211200D01*
X233462Y211131D01*
X233472Y211062D01*
X233485Y210994D01*
X233503Y210926D01*
X233524Y210860D01*
X233549Y210795D01*
X233577Y210731D01*
X233609Y210669D01*
X233644Y210609D01*
X233683Y210551D01*
X233725Y210496D01*
X233770Y210442D01*
X233818Y210392D01*
X233868Y210344D01*
X233922Y210299D01*
X233977Y210257D01*
X234035Y210218D01*
X234095Y210183D01*
X234157Y210151D01*
X234221Y210123D01*
X234286Y210098D01*
X234352Y210077D01*
X234420Y210059D01*
X234488Y210046D01*
X234557Y210036D01*
X234626Y210030D01*
X234696Y210028D01*
X237800Y210028D01*
X237870Y210030D01*
X237939Y210036D01*
X238008Y210046D01*
X238076Y210059D01*
X238144Y210077D01*
X238210Y210098D01*
X238275Y210123D01*
X238339Y210151D01*
X238401Y210183D01*
X238461Y210218D01*
X238519Y210257D01*
X238574Y210299D01*
X238628Y210344D01*
X238678Y210392D01*
X238726Y210442D01*
X238771Y210496D01*
X238813Y210551D01*
X238852Y210609D01*
X238887Y210669D01*
X238919Y210731D01*
X238947Y210795D01*
X238972Y210860D01*
X238993Y210926D01*
X239011Y210994D01*
X239024Y211062D01*
X239034Y211131D01*
X239040Y211200D01*
X239042Y211270D01*
X239042Y213132D01*
X232833Y215459D02*
X232833Y217942D01*
X233454Y220324D02*
X239042Y220324D01*
X235938Y222187D01*
X239042Y224050D01*
X233454Y224050D01*
X235006Y226670D02*
X237490Y226670D01*
X237567Y226672D01*
X237645Y226678D01*
X237721Y226687D01*
X237798Y226701D01*
X237873Y226718D01*
X237947Y226739D01*
X238021Y226764D01*
X238093Y226792D01*
X238163Y226824D01*
X238232Y226859D01*
X238299Y226898D01*
X238364Y226940D01*
X238427Y226985D01*
X238488Y227033D01*
X238546Y227084D01*
X238601Y227138D01*
X238654Y227195D01*
X238703Y227254D01*
X238750Y227316D01*
X238794Y227380D01*
X238834Y227446D01*
X238871Y227514D01*
X238905Y227584D01*
X238935Y227655D01*
X238961Y227728D01*
X238984Y227802D01*
X239003Y227877D01*
X239018Y227952D01*
X239030Y228029D01*
X239038Y228106D01*
X239042Y228183D01*
X239042Y228261D01*
X239038Y228338D01*
X239030Y228415D01*
X239018Y228492D01*
X239003Y228567D01*
X238984Y228642D01*
X238961Y228716D01*
X238935Y228789D01*
X238905Y228860D01*
X238871Y228930D01*
X238834Y228998D01*
X238794Y229064D01*
X238750Y229128D01*
X238703Y229190D01*
X238654Y229249D01*
X238601Y229306D01*
X238546Y229360D01*
X238488Y229411D01*
X238427Y229459D01*
X238364Y229504D01*
X238299Y229546D01*
X238232Y229585D01*
X238163Y229620D01*
X238093Y229652D01*
X238021Y229680D01*
X237947Y229705D01*
X237873Y229726D01*
X237798Y229743D01*
X237721Y229757D01*
X237645Y229766D01*
X237567Y229772D01*
X237490Y229774D01*
X235006Y229774D01*
X234929Y229772D01*
X234851Y229766D01*
X234775Y229757D01*
X234698Y229743D01*
X234623Y229726D01*
X234549Y229705D01*
X234475Y229680D01*
X234403Y229652D01*
X234333Y229620D01*
X234264Y229585D01*
X234197Y229546D01*
X234132Y229504D01*
X234069Y229459D01*
X234008Y229411D01*
X233950Y229360D01*
X233895Y229306D01*
X233842Y229249D01*
X233793Y229190D01*
X233746Y229128D01*
X233702Y229064D01*
X233662Y228998D01*
X233625Y228930D01*
X233591Y228860D01*
X233561Y228789D01*
X233535Y228716D01*
X233512Y228642D01*
X233493Y228567D01*
X233478Y228492D01*
X233466Y228415D01*
X233458Y228338D01*
X233454Y228261D01*
X233454Y228183D01*
X233458Y228106D01*
X233466Y228029D01*
X233478Y227952D01*
X233493Y227877D01*
X233512Y227802D01*
X233535Y227728D01*
X233561Y227655D01*
X233591Y227584D01*
X233625Y227514D01*
X233662Y227446D01*
X233702Y227380D01*
X233746Y227316D01*
X233793Y227254D01*
X233842Y227195D01*
X233895Y227138D01*
X233950Y227084D01*
X234008Y227033D01*
X234069Y226985D01*
X234132Y226940D01*
X234197Y226898D01*
X234264Y226859D01*
X234333Y226824D01*
X234403Y226792D01*
X234475Y226764D01*
X234549Y226739D01*
X234623Y226718D01*
X234698Y226701D01*
X234775Y226687D01*
X234851Y226678D01*
X234929Y226672D01*
X235006Y226670D01*
X233454Y232339D02*
X239042Y232339D01*
X239042Y233891D01*
X239040Y233967D01*
X239035Y234043D01*
X239025Y234119D01*
X239012Y234194D01*
X238995Y234268D01*
X238975Y234342D01*
X238951Y234414D01*
X238924Y234485D01*
X238893Y234555D01*
X238859Y234623D01*
X238821Y234689D01*
X238780Y234753D01*
X238737Y234816D01*
X238690Y234876D01*
X238640Y234933D01*
X238587Y234988D01*
X238532Y235041D01*
X238475Y235091D01*
X238415Y235138D01*
X238352Y235181D01*
X238288Y235222D01*
X238222Y235260D01*
X238154Y235294D01*
X238084Y235325D01*
X238013Y235352D01*
X237940Y235376D01*
X237867Y235396D01*
X237793Y235413D01*
X237718Y235426D01*
X237642Y235436D01*
X237566Y235441D01*
X237490Y235443D01*
X235006Y235443D01*
X234927Y235441D01*
X234849Y235435D01*
X234771Y235425D01*
X234694Y235411D01*
X234617Y235393D01*
X234541Y235372D01*
X234467Y235346D01*
X234394Y235317D01*
X234323Y235284D01*
X234253Y235248D01*
X234185Y235208D01*
X234119Y235165D01*
X234056Y235118D01*
X233995Y235069D01*
X233937Y235016D01*
X233881Y234960D01*
X233828Y234902D01*
X233779Y234841D01*
X233732Y234778D01*
X233689Y234712D01*
X233649Y234644D01*
X233613Y234575D01*
X233580Y234503D01*
X233551Y234430D01*
X233525Y234356D01*
X233504Y234280D01*
X233486Y234203D01*
X233472Y234126D01*
X233462Y234048D01*
X233456Y233970D01*
X233454Y233891D01*
X233454Y232339D01*
X233454Y238202D02*
X233454Y240686D01*
X233454Y238202D02*
X239042Y238202D01*
X239042Y240686D01*
X236558Y240065D02*
X236558Y238202D01*
D11*
X515000Y25000D02*
X545000Y25000D01*
X545000Y0D02*
X538500Y0D01*
X521500Y0D01*
X515000Y0D01*
D15*
X550000Y24500D03*
D11*
X534500Y-7000D02*
X525500Y-7000D01*
X538500Y-4500D02*
X538500Y0D01*
X521500Y0D02*
X521500Y-4500D01*
X525500Y-7000D01*
X534500Y-7000D02*
X538500Y-4500D01*
X545000Y375000D02*
X515000Y375000D01*
X515000Y400000D02*
X521500Y400000D01*
X538500Y400000D01*
X545000Y400000D01*
D15*
X510000Y375500D03*
D11*
X525500Y407000D02*
X534500Y407000D01*
X521500Y404500D02*
X521500Y400000D01*
X538500Y400000D02*
X538500Y404500D01*
X534500Y407000D01*
X525500Y407000D02*
X521500Y404500D01*
X265000Y375000D02*
X235000Y375000D01*
X235000Y400000D02*
X241500Y400000D01*
X258500Y400000D01*
X265000Y400000D01*
D15*
X230000Y375500D03*
D11*
X245500Y407000D02*
X254500Y407000D01*
X241500Y404500D02*
X241500Y400000D01*
X258500Y400000D02*
X258500Y404500D01*
X254500Y407000D01*
X245500Y407000D02*
X241500Y404500D01*
X375000Y375000D02*
X405000Y375000D01*
X381500Y400000D02*
X375000Y400000D01*
X381500Y400000D02*
X398500Y400000D01*
X405000Y400000D01*
D15*
X370000Y375500D03*
D11*
X385500Y407000D02*
X394500Y407000D01*
X381500Y404500D02*
X381500Y400000D01*
X398500Y400000D02*
X398500Y404500D01*
X394500Y407000D01*
X385500Y407000D02*
X381500Y404500D01*
M02*
