G04 EAGLE Gerber RS-274X export*
G75*
%MOMM*%
%FSLAX34Y34*%
%LPD*%
%INSoldermask Top*%
%IPPOS*%
%AMOC8*
5,1,8,0,0,1.08239X$1,22.5*%
G01*
%ADD10C,2.101600*%
%ADD11R,1.101600X1.201600*%
%ADD12R,1.201600X1.101600*%
%ADD13R,1.092200X0.406400*%
%ADD14R,1.001600X0.901600*%
%ADD15C,0.215122*%
%ADD16R,0.951600X1.601600*%
%ADD17R,0.401600X0.756600*%
%ADD18R,1.151600X0.751600*%
%ADD19R,1.601600X0.801600*%
%ADD20R,0.801600X1.601600*%
%ADD21R,1.101600X1.601600*%
%ADD22C,1.981200*%
%ADD23R,1.451600X0.501600*%
%ADD24R,1.501600X1.701600*%
%ADD25R,2.001600X2.001600*%
%ADD26C,1.001600*%
%ADD27R,1.001600X1.701600*%
%ADD28R,1.001600X0.701600*%
%ADD29R,0.701600X1.001600*%
%ADD30R,1.001600X2.601600*%
%ADD31R,2.601600X1.001600*%
%ADD32C,0.176703*%
%ADD33C,1.117600*%
%ADD34R,0.520000X0.418600*%
%ADD35R,0.522841X0.419888*%
%ADD36R,0.523191X0.421438*%
%ADD37R,0.520000X0.420478*%
%ADD38R,0.520000X0.419394*%
%ADD39R,0.519437X0.419956*%
%ADD40R,0.518713X0.421172*%
%ADD41R,0.520000X0.421025*%
%ADD42R,0.420669X0.519275*%
%ADD43R,0.419897X0.518713*%
%ADD44R,0.421084X0.522409*%
%ADD45R,0.419903X0.522450*%
%ADD46R,0.406400X0.914400*%
%ADD47R,1.447800X1.651000*%
%ADD48R,1.601600X0.901600*%
%ADD49R,2.001600X1.501600*%
%ADD50R,1.501600X1.401600*%
%ADD51R,1.101600X1.051600*%

G36*
X176047Y269087D02*
X176047Y269087D01*
X176042Y269094D01*
X176049Y269100D01*
X176049Y278800D01*
X176033Y278821D01*
X176035Y278834D01*
X170349Y284720D01*
X170349Y295280D01*
X176035Y300965D01*
X176039Y300992D01*
X176049Y301000D01*
X176049Y310900D01*
X176013Y310947D01*
X176006Y310942D01*
X176000Y310949D01*
X165300Y310949D01*
X165279Y310933D01*
X165265Y310935D01*
X159065Y304735D01*
X159064Y304724D01*
X159060Y304721D01*
X159063Y304718D01*
X159062Y304708D01*
X159051Y304700D01*
X159051Y275300D01*
X159067Y275279D01*
X159065Y275265D01*
X165265Y269065D01*
X165292Y269062D01*
X165300Y269051D01*
X176000Y269051D01*
X176047Y269087D01*
G37*
G36*
X199721Y269067D02*
X199721Y269067D01*
X199735Y269065D01*
X205935Y275265D01*
X205938Y275285D01*
X205947Y275292D01*
X205944Y275296D01*
X205949Y275300D01*
X205949Y304700D01*
X205933Y304721D01*
X205935Y304735D01*
X199735Y310935D01*
X199708Y310939D01*
X199700Y310949D01*
X189000Y310949D01*
X188953Y310913D01*
X188958Y310906D01*
X188951Y310900D01*
X188951Y301500D01*
X188966Y301480D01*
X188964Y301467D01*
X194651Y295281D01*
X194651Y284719D01*
X188963Y278433D01*
X188963Y278424D01*
X188960Y278422D01*
X188962Y278419D01*
X188961Y278408D01*
X188951Y278400D01*
X188951Y269100D01*
X188987Y269053D01*
X188994Y269058D01*
X189000Y269051D01*
X199700Y269051D01*
X199721Y269067D01*
G37*
D10*
X735000Y385000D03*
X735000Y15000D03*
X15000Y385000D03*
X15000Y170000D03*
D11*
X195050Y344720D03*
X195050Y361720D03*
D12*
X61450Y344180D03*
X78450Y344180D03*
X60450Y297780D03*
X77450Y297780D03*
D11*
X112050Y362280D03*
X112050Y345280D03*
X59750Y328780D03*
X76750Y328780D03*
X59450Y313380D03*
X76450Y313380D03*
X208350Y351380D03*
X225350Y351380D03*
X207550Y327280D03*
X224550Y327280D03*
D13*
X182398Y326640D03*
X182398Y333140D03*
X182398Y339640D03*
X182398Y346140D03*
X182398Y352640D03*
X182398Y359140D03*
X182398Y365640D03*
X182398Y372140D03*
X182398Y378640D03*
X182398Y385140D03*
X124042Y385140D03*
X124042Y378640D03*
X124042Y372140D03*
X124042Y365640D03*
X124042Y359140D03*
X124042Y352640D03*
X124042Y346140D03*
X124042Y339640D03*
X124042Y333140D03*
X124042Y326640D03*
D14*
X240550Y350680D03*
X240550Y331680D03*
X260550Y341180D03*
X298550Y331820D03*
X298550Y350820D03*
X278550Y341320D03*
D15*
X265517Y13723D02*
X265517Y9957D01*
X265517Y13723D02*
X268883Y13723D01*
X268883Y9957D01*
X265517Y9957D01*
X265517Y12000D02*
X268883Y12000D01*
X272017Y13723D02*
X272017Y9957D01*
X272017Y13723D02*
X275383Y13723D01*
X275383Y9957D01*
X272017Y9957D01*
X272017Y12000D02*
X275383Y12000D01*
X278517Y13723D02*
X278517Y9957D01*
X278517Y13723D02*
X281883Y13723D01*
X281883Y9957D01*
X278517Y9957D01*
X278517Y12000D02*
X281883Y12000D01*
X259017Y13723D02*
X259017Y9957D01*
X259017Y13723D02*
X262383Y13723D01*
X262383Y9957D01*
X259017Y9957D01*
X259017Y12000D02*
X262383Y12000D01*
X265517Y29357D02*
X265517Y33123D01*
X268883Y33123D01*
X268883Y29357D01*
X265517Y29357D01*
X265517Y31400D02*
X268883Y31400D01*
X272017Y33123D02*
X272017Y29357D01*
X272017Y33123D02*
X275383Y33123D01*
X275383Y29357D01*
X272017Y29357D01*
X272017Y31400D02*
X275383Y31400D01*
X278517Y33123D02*
X278517Y29357D01*
X278517Y33123D02*
X281883Y33123D01*
X281883Y29357D01*
X278517Y29357D01*
X278517Y31400D02*
X281883Y31400D01*
X259017Y33123D02*
X259017Y29357D01*
X259017Y33123D02*
X262383Y33123D01*
X262383Y29357D01*
X259017Y29357D01*
X259017Y31400D02*
X262383Y31400D01*
D11*
X284280Y315750D03*
X301280Y315750D03*
X284180Y301350D03*
X301180Y301350D03*
X293900Y29900D03*
X293900Y12900D03*
D16*
X355500Y47000D03*
X424500Y47000D03*
D17*
X372500Y72000D03*
X387500Y72000D03*
X397500Y72000D03*
X407500Y72000D03*
X412500Y72000D03*
X402500Y72000D03*
X392500Y72000D03*
X382500Y72000D03*
X377500Y72000D03*
X367500Y72000D03*
D12*
X232500Y11500D03*
X232500Y28500D03*
X247000Y11500D03*
X247000Y28500D03*
D18*
X322330Y325800D03*
X363830Y325800D03*
X363830Y347300D03*
X322330Y347300D03*
X363940Y313250D03*
X322440Y313250D03*
X322440Y291750D03*
X363940Y291750D03*
D19*
X614000Y200000D03*
X614000Y210000D03*
X614000Y190000D03*
X614000Y180000D03*
X614000Y220000D03*
D20*
X618000Y156000D03*
X628000Y156000D03*
X638000Y156000D03*
X648000Y156000D03*
X658000Y156000D03*
X668000Y156000D03*
X678000Y156000D03*
X688000Y156000D03*
X698000Y156000D03*
X708000Y156000D03*
X718000Y156000D03*
X728000Y156000D03*
X618000Y244000D03*
X628000Y244000D03*
X638000Y244000D03*
X648000Y244000D03*
X658000Y244000D03*
X668000Y244000D03*
X678000Y244000D03*
X688000Y244000D03*
X698000Y244000D03*
X708000Y244000D03*
X718000Y244000D03*
X728000Y244000D03*
D21*
X739500Y244000D03*
X739500Y156000D03*
D12*
X625500Y278000D03*
X625500Y261000D03*
X611000Y261000D03*
X611000Y278000D03*
X654500Y261000D03*
X654500Y278000D03*
X640000Y261000D03*
X640000Y278000D03*
D22*
X711000Y384500D03*
X685600Y387040D03*
X660200Y384500D03*
X634800Y387040D03*
X609400Y384500D03*
X584000Y387040D03*
D23*
X41700Y316500D03*
X41700Y310000D03*
X41700Y323000D03*
X41700Y329500D03*
X41700Y303500D03*
D24*
X41700Y348500D03*
X41700Y284500D03*
D25*
X14950Y328500D03*
X14950Y304500D03*
D26*
X11500Y349500D02*
X18500Y349500D01*
X18500Y283500D02*
X11500Y283500D01*
D27*
X67500Y384000D03*
X38500Y384000D03*
D28*
X95500Y252000D03*
X95500Y237000D03*
X200000Y259500D03*
X200000Y244500D03*
X200000Y230000D03*
X200000Y215000D03*
D29*
X145500Y264500D03*
X130500Y264500D03*
D30*
X131500Y178000D03*
X160500Y178000D03*
D31*
X69000Y267000D03*
X69000Y238000D03*
X169500Y229500D03*
X169500Y258500D03*
X69000Y220500D03*
X69000Y191500D03*
D28*
X111500Y252000D03*
X111500Y237000D03*
X95500Y207500D03*
X95500Y222500D03*
D29*
X145500Y249000D03*
X130500Y249000D03*
X145500Y233500D03*
X130500Y233500D03*
X145500Y218000D03*
X130500Y218000D03*
X130500Y202500D03*
X145500Y202500D03*
D28*
X200000Y185500D03*
X200000Y200500D03*
D29*
X199500Y170500D03*
X184500Y170500D03*
D28*
X184500Y200500D03*
X184500Y185500D03*
D29*
X120500Y290000D03*
X135500Y290000D03*
X135500Y305500D03*
X120500Y305500D03*
D32*
X375125Y191625D02*
X388775Y191625D01*
X388775Y189375D01*
X375125Y189375D01*
X375125Y191625D01*
X375125Y191054D02*
X388775Y191054D01*
X388775Y196625D02*
X375125Y196625D01*
X388775Y196625D02*
X388775Y194375D01*
X375125Y194375D01*
X375125Y196625D01*
X375125Y196054D02*
X388775Y196054D01*
X388775Y201625D02*
X375125Y201625D01*
X388775Y201625D02*
X388775Y199375D01*
X375125Y199375D01*
X375125Y201625D01*
X375125Y201054D02*
X388775Y201054D01*
X388775Y206625D02*
X375125Y206625D01*
X388775Y206625D02*
X388775Y204375D01*
X375125Y204375D01*
X375125Y206625D01*
X375125Y206054D02*
X388775Y206054D01*
X388775Y211625D02*
X375125Y211625D01*
X388775Y211625D02*
X388775Y209375D01*
X375125Y209375D01*
X375125Y211625D01*
X375125Y211054D02*
X388775Y211054D01*
X345875Y211625D02*
X332225Y211625D01*
X345875Y211625D02*
X345875Y209375D01*
X332225Y209375D01*
X332225Y211625D01*
X332225Y211054D02*
X345875Y211054D01*
X345875Y206625D02*
X332225Y206625D01*
X345875Y206625D02*
X345875Y204375D01*
X332225Y204375D01*
X332225Y206625D01*
X332225Y206054D02*
X345875Y206054D01*
X345875Y201625D02*
X332225Y201625D01*
X345875Y201625D02*
X345875Y199375D01*
X332225Y199375D01*
X332225Y201625D01*
X332225Y201054D02*
X345875Y201054D01*
X345875Y196625D02*
X332225Y196625D01*
X345875Y196625D02*
X345875Y194375D01*
X332225Y194375D01*
X332225Y196625D01*
X332225Y196054D02*
X345875Y196054D01*
X345875Y191625D02*
X332225Y191625D01*
X345875Y191625D02*
X345875Y189375D01*
X332225Y189375D01*
X332225Y191625D01*
X332225Y191054D02*
X345875Y191054D01*
D12*
X385000Y175000D03*
X368000Y175000D03*
X353000Y175000D03*
X336000Y175000D03*
D11*
X521500Y16500D03*
X538500Y16500D03*
X278500Y384500D03*
X261500Y384500D03*
X419000Y385000D03*
X402000Y385000D03*
D12*
X703500Y137500D03*
X720500Y137500D03*
X455000Y77000D03*
X438000Y77000D03*
D22*
X439500Y386270D03*
X464900Y383730D03*
X490300Y386270D03*
X299000Y386270D03*
X324400Y383730D03*
X349800Y386270D03*
D33*
X322120Y211160D02*
X306880Y211160D01*
X306880Y190840D02*
X322120Y190840D01*
D22*
X89500Y385000D03*
X209500Y384500D03*
X451500Y21500D03*
X426100Y24040D03*
X400700Y21500D03*
X375300Y24040D03*
X349900Y21500D03*
X324500Y24040D03*
D34*
X432000Y207507D03*
D35*
X432386Y202501D03*
D36*
X432384Y197493D03*
D37*
X432000Y192498D03*
D38*
X448000Y207503D03*
D39*
X447653Y202500D03*
D40*
X447656Y197494D03*
D41*
X448000Y192495D03*
D42*
X437497Y207604D03*
D43*
X442501Y207606D03*
D44*
X437495Y192388D03*
D45*
X442500Y192388D03*
D46*
X380080Y140178D03*
X375000Y140178D03*
X369920Y140178D03*
X369920Y111222D03*
X375000Y111222D03*
X380080Y111222D03*
D47*
X375000Y125700D03*
D12*
X358000Y138500D03*
X358000Y121500D03*
X392000Y138500D03*
X392000Y121500D03*
D48*
X44900Y134600D03*
D49*
X22000Y142500D03*
D50*
X153500Y126500D03*
D51*
X155500Y112600D03*
D50*
X153500Y69500D03*
D49*
X12000Y11000D03*
D48*
X44900Y123600D03*
X42900Y112600D03*
X44900Y101600D03*
X42900Y90600D03*
X44900Y79600D03*
X48900Y68600D03*
X44900Y57600D03*
M02*
